<svg width="24" height="25" viewBox="0 0 24 25" fill="none" xmlns="http://www.w3.org/2000/svg">
<path d="M12 20.5C9.87827 20.5 7.84344 19.6571 6.34315 18.1569C4.84285 16.6566 4 14.6217 4 12.5C4 10.3783 4.84285 8.34344 6.34315 6.84315C7.84344 5.34285 9.87827 4.5 12 4.5C14.1217 4.5 16.1566 5.34285 17.6569 6.84315C19.1571 8.34344 20 10.3783 20 12.5C20 14.6217 19.1571 16.6566 17.6569 18.1569C16.1566 19.6571 14.1217 20.5 12 20.5ZM12 2.5C10.6868 2.5 9.38642 2.75866 8.17317 3.2612C6.95991 3.76375 5.85752 4.50035 4.92893 5.42893C3.05357 7.3043 2 9.84784 2 12.5C2 15.1522 3.05357 17.6957 4.92893 19.5711C5.85752 20.4997 6.95991 21.2362 8.17317 21.7388C9.38642 22.2413 10.6868 22.5 12 22.5C14.6522 22.5 17.1957 21.4464 19.0711 19.5711C20.9464 17.6957 22 15.1522 22 12.5C22 11.1868 21.7413 9.88642 21.2388 8.67317C20.7362 7.45991 19.9997 6.35752 19.0711 5.42893C18.1425 4.50035 17.0401 3.76375 15.8268 3.2612C14.6136 2.75866 13.3132 2.5 12 2.5Z" fill="black"/>
</svg>
