<svg width="128" height="24" viewBox="0 0 128 24" fill="none" xmlns="http://www.w3.org/2000/svg">
<path d="M116 20C113.878 20 111.843 19.1571 110.343 17.6569C108.843 16.1566 108 14.1217 108 12C108 9.87827 108.843 7.84344 110.343 6.34315C111.843 4.84286 113.878 4 116 4C118.122 4 120.157 4.84286 121.657 6.34315C123.157 7.84344 124 9.87827 124 12C124 14.1217 123.157 16.1566 121.657 17.6569C120.157 19.1571 118.122 20 116 20ZM116 2C114.687 2 113.386 2.25866 112.173 2.7612C110.96 3.26375 109.858 4.00035 108.929 4.92893C107.054 6.8043 106 9.34784 106 12C106 14.6522 107.054 17.1957 108.929 19.0711C109.858 19.9997 110.96 20.7363 112.173 21.2388C113.386 21.7413 114.687 22 116 22C118.652 22 121.196 20.9464 123.071 19.0711C124.946 17.1957 126 14.6522 126 12C126 10.6868 125.741 9.38642 125.239 8.17317C124.736 6.95991 124 5.85752 123.071 4.92893C122.142 4.00035 121.04 3.26375 119.827 2.7612C118.614 2.25866 117.313 2 116 2Z" fill="black"/>
<path d="M10 2C8.68678 2 7.38642 2.25866 6.17317 2.7612C4.95991 3.26375 3.85752 4.00035 2.92893 4.92893C1.05357 6.8043 0 9.34784 0 12C0 14.6522 1.05357 17.1957 2.92893 19.0711C3.85752 19.9997 4.95991 20.7362 6.17317 21.2388C7.38642 21.7413 8.68678 22 10 22C12.6522 22 15.1957 20.9464 17.0711 19.0711C18.9464 17.1957 20 14.6522 20 12C20 10.6868 19.7413 9.38642 19.2388 8.17317C18.7362 6.95991 17.9997 5.85752 17.0711 4.92893C16.1425 4.00035 15.0401 3.26375 13.8268 2.7612C12.6136 2.25866 11.3132 2 10 2Z" fill="black"/>
<path d="M88 2C86.6868 2 85.3864 2.25866 84.1732 2.7612C82.9599 3.26375 81.8575 4.00035 80.9289 4.92893C79.0536 6.8043 78 9.34784 78 12C78 14.6522 79.0536 17.1957 80.9289 19.0711C81.8575 19.9997 82.9599 20.7362 84.1732 21.2388C85.3864 21.7413 86.6868 22 88 22C90.6522 22 93.1957 20.9464 95.0711 19.0711C96.9464 17.1957 98 14.6522 98 12C98 10.6868 97.7413 9.38642 97.2388 8.17317C96.7362 6.95991 95.9997 5.85752 95.0711 4.92893C94.1425 4.00035 93.0401 3.26375 91.8268 2.7612C90.6136 2.25866 89.3132 2 88 2Z" fill="black"/>
<path d="M62 2C60.6868 2 59.3864 2.25866 58.1732 2.7612C56.9599 3.26375 55.8575 4.00035 54.9289 4.92893C53.0536 6.8043 52 9.34784 52 12C52 14.6522 53.0536 17.1957 54.9289 19.0711C55.8575 19.9997 56.9599 20.7362 58.1732 21.2388C59.3864 21.7413 60.6868 22 62 22C64.6522 22 67.1957 20.9464 69.0711 19.0711C70.9464 17.1957 72 14.6522 72 12C72 10.6868 71.7413 9.38642 71.2388 8.17317C70.7362 6.95991 69.9997 5.85752 69.0711 4.92893C68.1425 4.00035 67.0401 3.26375 65.8268 2.7612C64.6136 2.25866 63.3132 2 62 2Z" fill="black"/>
<path d="M36 2C34.6868 2 33.3864 2.25866 32.1732 2.7612C30.9599 3.26375 29.8575 4.00035 28.9289 4.92893C27.0536 6.8043 26 9.34784 26 12C26 14.6522 27.0536 17.1957 28.9289 19.0711C29.8575 19.9997 30.9599 20.7362 32.1732 21.2388C33.3864 21.7413 34.6868 22 36 22C38.6522 22 41.1957 20.9464 43.0711 19.0711C44.9464 17.1957 46 14.6522 46 12C46 10.6868 45.7413 9.38642 45.2388 8.17317C44.7362 6.95991 43.9997 5.85752 43.0711 4.92893C42.1425 4.00035 41.0401 3.26375 39.8268 2.7612C38.6136 2.25866 37.3132 2 36 2Z" fill="black"/>
</svg>
