<svg width="22" height="23" viewBox="0 0 22 23" fill="none" xmlns="http://www.w3.org/2000/svg">
<path d="M8.125 0.990723C10.2799 0.990723 12.3465 1.84911 13.8702 3.37705C15.394 4.90499 16.25 6.97731 16.25 9.13815C16.25 11.1562 15.5125 13.0113 14.3 14.4402L14.6375 14.7787H15.625L21.875 21.0459L20 22.9261L13.75 16.6588V15.6686L13.4125 15.3302C11.9875 16.546 10.1375 17.2856 8.125 17.2856C5.97012 17.2856 3.90349 16.4272 2.37976 14.8992C0.856024 13.3713 0 11.299 0 9.13815C0 6.97731 0.856024 4.90499 2.37976 3.37705C3.90349 1.84911 5.97012 0.990723 8.125 0.990723ZM8.125 3.49762C5 3.49762 2.5 6.00452 2.5 9.13815C2.5 12.2718 5 14.7787 8.125 14.7787C11.25 14.7787 13.75 12.2718 13.75 9.13815C13.75 6.00452 11.25 3.49762 8.125 3.49762Z" fill="black"/>
</svg>
