<svg width="40" height="32" viewBox="0 0 40 32" fill="none" xmlns="http://www.w3.org/2000/svg">
<path d="M4.10148 0.780762C3.05013 0.780762 2.04184 1.18681 1.29842 1.90957C0.555006 2.63234 0.13736 3.61262 0.13736 4.63476V12.3428C2.33744 12.3428 4.10148 14.0771 4.10148 16.1968C4.10148 17.2189 3.68383 18.1992 2.94041 18.922C2.197 19.6447 1.18871 20.0508 0.13736 20.0508V27.7588C0.13736 28.7809 0.555006 29.7612 1.29842 30.484C2.04184 31.2067 3.05013 31.6128 4.10148 31.6128H35.8144C36.8658 31.6128 37.8741 31.2067 38.6175 30.484C39.3609 29.7612 39.7785 28.7809 39.7785 27.7588V20.0508C38.7272 20.0508 37.7189 19.6447 36.9755 18.922C36.2321 18.1992 35.8144 17.2189 35.8144 16.1968C35.8144 14.0578 37.5983 12.3428 39.7785 12.3428V4.63476C39.7785 2.49579 37.9947 0.780762 35.8144 0.780762H4.10148ZM26.8951 6.56177L29.8682 9.45227L13.0207 25.8318L10.0477 22.9413L26.8951 6.56177ZM13.6352 6.63885C15.5776 6.63885 17.1434 8.16118 17.1434 10.0496C17.1434 10.9542 16.7738 11.8218 16.1159 12.4614C15.458 13.1011 14.5656 13.4604 13.6352 13.4604C11.6928 13.4604 10.1269 11.9381 10.1269 10.0496C10.1269 9.14504 10.4966 8.27749 11.1545 7.63784C11.8124 6.9982 12.7047 6.63885 13.6352 6.63885ZM26.2807 18.9331C28.2231 18.9331 29.789 20.4554 29.789 22.3439C29.789 23.2485 29.4193 24.1161 28.7614 24.7557C28.1035 25.3954 27.2112 25.7547 26.2807 25.7547C24.3383 25.7547 22.7725 24.2324 22.7725 22.3439C22.7725 21.4393 23.1421 20.5718 23.8 19.9321C24.4579 19.2925 25.3503 18.9331 26.2807 18.9331Z" fill="black"/>
</svg>
