<svg width="31" height="31" viewBox="0 0 31 31" fill="none" xmlns="http://www.w3.org/2000/svg">
<path d="M24.875 24.9832C23.21 24.9832 21.875 26.3219 21.875 27.9915C21.875 28.7894 22.1911 29.5545 22.7537 30.1187C23.3163 30.6828 24.0793 30.9998 24.875 30.9998C25.6707 30.9998 26.4337 30.6828 26.9963 30.1187C27.5589 29.5545 27.875 28.7894 27.875 27.9915C27.875 26.3219 26.525 24.9832 24.875 24.9832ZM0.875 0.916992V3.92527H3.875L9.275 15.3417L7.235 19.0268C7.01 19.448 6.875 19.9444 6.875 20.4708C6.875 21.2687 7.19107 22.0338 7.75368 22.598C8.31629 23.1621 9.07935 23.4791 9.875 23.4791H27.875V20.4708H10.505C10.4055 20.4708 10.3102 20.4312 10.2398 20.3607C10.1695 20.2902 10.13 20.1945 10.13 20.0948C10.13 20.0196 10.145 19.9594 10.175 19.9143L11.525 17.4625H22.7C23.825 17.4625 24.815 16.8308 25.325 15.9133L30.695 6.18148C30.8 5.94082 30.875 5.68512 30.875 5.42941C30.875 5.03049 30.717 4.64791 30.4357 4.36582C30.1544 4.08374 29.7728 3.92527 29.375 3.92527H7.19L5.78 0.916992M9.875 24.9832C8.21 24.9832 6.875 26.3219 6.875 27.9915C6.875 28.7894 7.19107 29.5545 7.75368 30.1187C8.31629 30.6828 9.07935 30.9998 9.875 30.9998C10.6706 30.9998 11.4337 30.6828 11.9963 30.1187C12.5589 29.5545 12.875 28.7894 12.875 27.9915C12.875 26.3219 11.525 24.9832 9.875 24.9832Z" fill="black"/>
</svg>
