<svg width="31" height="31" viewBox="0 0 31 31" fill="none" xmlns="http://www.w3.org/2000/svg">
<path d="M24.875 24.9835C23.21 24.9835 21.875 26.3222 21.875 27.9918C21.875 28.7896 22.1911 29.5548 22.7537 30.1189C23.3163 30.6831 24.0794 31 24.875 31C25.6706 31 26.4337 30.6831 26.9963 30.1189C27.5589 29.5548 27.875 28.7896 27.875 27.9918C27.875 26.3222 26.525 24.9835 24.875 24.9835ZM0.875 0.917236V3.92552H3.875L9.275 15.3419L7.235 19.0271C7.01 19.4482 6.875 19.9446 6.875 20.4711C6.875 21.2689 7.19107 22.0341 7.75368 22.5982C8.31629 23.1624 9.07935 23.4793 9.875 23.4793H27.875V20.4711H10.505C10.4055 20.4711 10.3102 20.4314 10.2398 20.3609C10.1695 20.2904 10.13 20.1947 10.13 20.095C10.13 20.0198 10.145 19.9596 10.175 19.9145L11.525 17.4628H22.7C23.825 17.4628 24.815 16.831 25.325 15.9135L30.695 6.18173C30.8 5.94106 30.875 5.68536 30.875 5.42966C30.875 5.03073 30.717 4.64815 30.4357 4.36607C30.1544 4.08399 29.7728 3.92552 29.375 3.92552H7.19L5.78 0.917236M9.875 24.9835C8.21 24.9835 6.875 26.3222 6.875 27.9918C6.875 28.7896 7.19107 29.5548 7.75368 30.1189C8.31629 30.6831 9.07935 31 9.875 31C10.6706 31 11.4337 30.6831 11.9963 30.1189C12.5589 29.5548 12.875 28.7896 12.875 27.9918C12.875 26.3222 11.525 24.9835 9.875 24.9835Z" fill="black"/>
</svg>
