<svg width="22" height="23" viewBox="0 0 22 23" fill="none" xmlns="http://www.w3.org/2000/svg">
<path d="M8.125 0.990967C10.2799 0.990967 12.3465 1.84935 13.8702 3.37729C15.394 4.90523 16.25 6.97756 16.25 9.13839C16.25 11.1564 15.5125 13.0115 14.3 14.4405L14.6375 14.7789H15.625L21.875 21.0462L20 22.9263L13.75 16.6591V15.6689L13.4125 15.3304C11.9875 16.5463 10.1375 17.2858 8.125 17.2858C5.97012 17.2858 3.90349 16.4274 2.37976 14.8995C0.856024 13.3716 0 11.2992 0 9.13839C0 6.97756 0.856024 4.90523 2.37976 3.37729C3.90349 1.84935 5.97012 0.990967 8.125 0.990967ZM8.125 3.49787C5 3.49787 2.5 6.00477 2.5 9.13839C2.5 12.272 5 14.7789 8.125 14.7789C11.25 14.7789 13.75 12.272 13.75 9.13839C13.75 6.00477 11.25 3.49787 8.125 3.49787Z" fill="black"/>
</svg>
