<svg width="18" height="19" viewBox="0 0 18 19" fill="none" xmlns="http://www.w3.org/2000/svg">
<path d="M9 17.1122C5.031 17.1122 1.8 13.8812 1.8 9.91217C1.8 5.94317 5.031 2.71217 9 2.71217C12.969 2.71217 16.2 5.94317 16.2 9.91217C16.2 13.8812 12.969 17.1122 9 17.1122ZM9 0.91217C7.8181 0.91217 6.64778 1.14496 5.55585 1.59725C4.46392 2.04955 3.47177 2.71248 2.63604 3.54821C0.948212 5.23604 0 7.52522 0 9.91217C0 12.2991 0.948212 14.5883 2.63604 16.2761C3.47177 17.1119 4.46392 17.7748 5.55585 18.2271C6.64778 18.6794 7.8181 18.9122 9 18.9122C11.3869 18.9122 13.6761 17.964 15.364 16.2761C17.0518 14.5883 18 12.2991 18 9.91217C18 8.73027 17.7672 7.55995 17.3149 6.46802C16.8626 5.37609 16.1997 4.38394 15.364 3.54821C14.5282 2.71248 13.5361 2.04955 12.4442 1.59725C11.3522 1.14496 10.1819 0.91217 9 0.91217ZM4.5 10.8122H13.5V9.01217H4.5" fill="white"/>
</svg>
